<svg width="48" height="48" viewBox="0 0 48 48" fill="none" xmlns="http://www.w3.org/2000/svg">
<path d="M45.8831 3.88281H44.1172V2.0981C44.1172 1.65475 43.7565 1.29419 43.3132 1.29419H40.9264C40.483 1.29419 40.1225 1.65485 40.1225 2.0981V3.88272H35.0573V2.0981C35.0573 1.65475 34.6967 1.29419 34.2534 1.29419H31.8665C31.4231 1.29419 31.0626 1.65485 31.0626 2.0981V3.88272H25.9975V2.0981C25.9975 1.65475 25.6369 1.29419 25.1936 1.29419H22.8066C22.3632 1.29419 22.0027 1.65485 22.0027 2.0981V3.88272H16.9376V2.0981C16.9376 1.65475 16.577 1.29419 16.1337 1.29419H13.7467C13.3034 1.29419 12.9428 1.65485 12.9428 2.0981V3.88272H7.87762V2.0981C7.87762 1.65475 7.51697 1.29419 7.07372 1.29419H4.68684C4.2435 1.29419 3.88294 1.65485 3.88294 2.0981V3.88272H2.11687C0.949594 3.88281 0 4.83231 0 5.99969V44.5889C0 45.7561 0.949594 46.7058 2.11687 46.7058H11.6591C12.0474 46.7058 12.3622 46.391 12.3622 46.0026C12.3622 45.6142 12.0474 45.2995 11.6591 45.2995H9.17297V27.2913H15.532V45.2995H14.9405C14.5522 45.2995 14.2373 45.6142 14.2373 46.0026C14.2373 46.391 14.5522 46.7058 14.9405 46.7058H45.8831C47.0504 46.7058 48 45.7561 48 44.5889V5.99969C48 4.83231 47.0504 3.88281 45.8831 3.88281ZM41.5287 2.70044H42.7109V6.47135H41.5287V2.70044ZM32.4687 2.70044H33.651V6.47135H32.4687V2.70044ZM23.4088 2.70044H24.5911V6.47135H23.4088V2.70044ZM14.349 2.70044H15.5313V6.47135H14.349V2.70044ZM5.28909 2.70044H6.47137V6.47135H5.28909V2.70044ZM2.11687 5.28906H3.88284V7.07369C3.88284 7.51703 4.2435 7.8776 4.68675 7.8776H7.07363C7.51697 7.8776 7.87753 7.51694 7.87753 7.07369V5.28906H12.9427V7.07369C12.9427 7.51703 13.3033 7.8776 13.7466 7.8776H16.1335C16.5769 7.8776 16.9374 7.51694 16.9374 7.07369V5.28906H22.0025V7.07369C22.0025 7.51703 22.3631 7.8776 22.8064 7.8776H25.1933C25.6367 7.8776 25.9972 7.51694 25.9972 7.07369V5.28906H31.0623V7.07369C31.0623 7.51703 31.4229 7.8776 31.8662 7.8776H34.2532C34.6965 7.8776 35.0571 7.51694 35.0571 7.07369V5.28906H40.1222V7.07369C40.1222 7.51703 40.4828 7.8776 40.9261 7.8776H43.313C43.7563 7.8776 44.1169 7.51694 44.1169 7.07369V5.28906H45.8828C46.2747 5.28906 46.5935 5.60781 46.5935 5.99969V10.3542H13.2997C12.9114 10.3542 12.5966 10.6689 12.5966 11.0573C12.5966 11.4457 12.9114 11.7604 13.2997 11.7604H15.532V18.1198H13.0552V15.042C13.0552 14.5983 12.6941 14.2371 12.2503 14.2371H9.17297V11.7604H10.0184C10.4067 11.7604 10.7215 11.4457 10.7215 11.0573C10.7215 10.6689 10.4067 10.3542 10.0184 10.3542H1.40625V5.99969C1.40625 5.60781 1.725 5.28906 2.11687 5.28906ZM37.6453 41.4157V38.9393H42.7102V41.4157H37.6453ZM42.7102 37.5331H35.0569V35.0567H42.7102V37.5331ZM34.4555 33.6504C34.0117 33.6504 33.6506 34.0115 33.6506 34.4553V38.1344C33.6506 38.5782 34.0117 38.9393 34.4555 38.9393H36.239V42.017C36.239 42.4608 36.6001 42.822 37.0439 42.822H38.8279V45.2995H32.4688V31.174H35.5462C35.9899 31.174 36.351 30.8129 36.351 30.3691V26.6899C36.351 26.2462 35.9899 25.8851 35.5462 25.8851H32.4688V11.7604H38.8279V33.6504H34.4555ZM9.1725 25.8851V23.4087H19.4142V25.8851H9.1725ZM11.6489 15.6434V18.1198H3.99563V15.6434H11.6489ZM6.58406 19.526H15.5316V22.0024H6.58406V19.526ZM23.2973 11.7604V25.8851H20.8205V22.8073C20.8205 22.3636 20.4594 22.0024 20.0156 22.0024H16.9383V11.7604H23.2973ZM29.4338 25.8851C29.0454 25.8851 28.7307 26.1998 28.7307 26.5882C28.7307 26.9766 29.0454 27.2913 29.4338 27.2913H34.9448V29.7678H20.8205V27.2913H26.1526C26.541 27.2913 26.8557 26.9766 26.8557 26.5882C26.8557 26.1998 26.541 25.8851 26.1526 25.8851H24.7036V11.7604H31.0627V25.8851H29.4338ZM20.8205 31.174H27.1795V33.6504H20.8205V31.174ZM27.7809 35.0567C28.2247 35.0567 28.5858 34.6955 28.5858 34.2517V31.174H31.0627V45.2995H24.7036V35.0567H27.7809ZM2.11687 45.2995C1.725 45.2995 1.40625 44.9808 1.40625 44.5889V11.7604H7.76672V14.2371H3.39422C2.95041 14.2371 2.58938 14.5983 2.58938 15.042V18.7211C2.58938 19.1649 2.9505 19.526 3.39422 19.526H5.17781V22.6038C5.17781 23.0476 5.53894 23.4087 5.98266 23.4087H7.76625C7.76625 27.247 7.76672 29.7582 7.76672 45.2995H2.11687ZM16.9383 27.2913H19.4142V34.2517C19.4142 34.6955 19.7753 35.0567 20.2191 35.0567H23.2972V45.2995H16.9382V27.2913H16.9383ZM46.5938 44.5889C46.5938 44.9808 46.275 45.2995 45.8831 45.2995H40.2342V42.822H43.3116C43.7553 42.822 44.1164 42.4608 44.1164 42.017V34.4553C44.1164 34.0115 43.7553 33.6504 43.3116 33.6504H40.2342V11.7604H46.5938V44.5889Z" fill="#1085F1"/>
<path fill-rule="evenodd" clip-rule="evenodd" d="M15.532 27.2913H16.9383H19.4142V34.2517C19.4142 34.6955 19.7753 35.0567 20.2191 35.0567H23.2972H24.7036H27.7809C28.2247 35.0567 28.5858 34.6955 28.5858 34.2517V31.174H31.0627H32.4688H35.5462C35.9899 31.174 36.351 30.8129 36.351 30.3691V26.6899C36.351 26.2462 35.9899 25.8851 35.5462 25.8851H32.4688H31.0627H29.4338C29.0454 25.8851 28.7307 26.1998 28.7307 26.5882C28.7307 26.9766 29.0454 27.2913 29.4338 27.2913H34.9448V29.7678H20.8205V27.2913H26.1526C26.541 27.2913 26.8557 26.9766 26.8557 26.5882C26.8557 26.1998 26.541 25.8851 26.1526 25.8851H24.7036H23.2973H20.8205V22.8073C20.8205 22.3636 20.4594 22.0024 20.0156 22.0024H16.9383V18.1198H15.532H13.0552V15.042C13.0552 14.5983 12.6941 14.2371 12.2503 14.2371H9.17297H7.76672H3.39422C2.95041 14.2371 2.58938 14.5983 2.58938 15.042V18.7211C2.58938 19.1649 2.9505 19.526 3.39422 19.526H5.17781V22.6038C5.17781 23.0476 5.53894 23.4087 5.98266 23.4087H7.76625L7.76637 27.2913H9.17297H15.532ZM38.8279 33.6504H34.4555C34.0117 33.6504 33.6506 34.0115 33.6506 34.4553V38.1344C33.6506 38.5782 34.0117 38.9393 34.4555 38.9393H36.239V42.017C36.239 42.4608 36.6001 42.822 37.0439 42.822H38.8279H40.2342H43.3116C43.7553 42.822 44.1164 42.4608 44.1164 42.017V34.4553C44.1164 34.0115 43.7553 33.6504 43.3116 33.6504H40.2342H38.8279ZM37.6453 38.9393V41.4157H42.7102V38.9393H37.6453ZM35.0569 37.5331H42.7102V35.0567H35.0569V37.5331ZM9.1725 23.4087V25.8851H19.4142V23.4087H9.1725ZM11.6489 18.1198V15.6434H3.99563V18.1198H11.6489ZM15.5316 19.526H6.58406V22.0024H15.5316V19.526ZM27.1795 31.174H20.8205V33.6504H27.1795V31.174Z" fill="#F8981D"/>
</svg>
