<svg width="48" height="48" viewBox="0 0 48 48" fill="none" xmlns="http://www.w3.org/2000/svg">
<g clip-path="url(#clip0_2_1035)">
<path d="M29.9658 41.8687V36.0704H19.5392V42.292C13.5549 40.8207 8.51629 36.4552 6.32604 30.5193L5.00421 31.0071C6.4226 34.851 8.94622 38.1411 12.3025 40.5218C13.5181 41.3847 14.8254 42.1106 16.2006 42.6861C15.4902 43.2271 15.0304 44.0813 15.0304 45.0411C15.0304 46.6726 16.3578 48 17.9893 48C19.6208 48 20.9482 46.6726 20.9482 45.0411V44.0142C21.9587 44.1665 22.9791 44.2428 24.001 44.2427C24.0535 44.2427 24.1062 44.2415 24.1587 44.2412C24.0854 44.5015 24.0481 44.7706 24.048 45.0411C24.048 46.6726 25.3754 48 27.0069 48C28.6384 48 29.9658 46.6726 29.9658 45.0411V43.3485C34.2952 42.0147 38.0823 39.2381 40.6728 35.4843L39.5131 34.684C37.1854 38.057 33.8203 40.5817 29.9658 41.8687ZM28.5568 37.4795V39.0763H20.9482V37.4795H28.5568ZM17.9893 46.591C17.1347 46.591 16.4394 45.8957 16.4394 45.0411C16.4394 44.1865 17.1347 43.4912 17.9893 43.4912C18.8439 43.4912 19.5392 44.1865 19.5392 45.0411C19.5392 45.8957 18.8439 46.591 17.9893 46.591ZM20.9482 42.5815V40.4853H28.5568V42.5219C28.0912 42.2339 27.5544 42.0816 27.0069 42.0822C26.2686 42.0822 25.5931 42.3546 25.0742 42.8035C24.7178 42.8234 24.3583 42.8337 24.001 42.8337C22.9676 42.8337 21.9474 42.7471 20.9482 42.5815ZM27.0069 46.591C26.1523 46.591 25.457 45.8957 25.457 45.0411C25.457 44.1865 26.1523 43.4912 27.0069 43.4912C27.8615 43.4912 28.5568 44.1865 28.5568 45.0411C28.5568 45.8957 27.8615 46.591 27.0069 46.591ZM40.2094 33.5974L41.421 34.3165C41.6848 33.8719 41.9315 33.4174 42.1605 32.9539L40.8974 32.3297C40.6843 32.7609 40.4548 33.1837 40.2094 33.5974ZM15.0304 7.4353V13.4325H32.9717V7.43662C36.6417 9.4259 39.5482 12.5763 41.2359 16.3944L42.5248 15.8248C40.6062 11.4838 37.2255 7.95353 32.9717 5.84877V0H27.0069C25.772 0 24.6758 0.606622 24.001 1.53741C23.3263 0.606622 22.2302 0 20.9952 0H15.0304V5.84914C11.4371 7.62608 8.48238 10.3939 6.46694 13.8781L7.68657 14.5837C9.44407 11.5455 11.9688 9.09257 15.0304 7.4353ZM16.4394 10.4266H20.9952C22.0185 10.4266 22.8875 11.0981 23.1858 12.0235H16.4394V10.4266ZM24.8163 12.0235C25.1146 11.0981 25.9836 10.4266 27.0069 10.4266H31.5627V12.0235H24.8163ZM27.0069 1.409H31.5627V9.01761H27.0069C26.138 9.01761 25.3385 9.31867 24.7055 9.82084V3.71037C24.7055 2.44133 25.7379 1.409 27.0069 1.409ZM20.9952 1.409C22.2642 1.409 23.2965 2.44133 23.2965 3.71037V9.82084C22.6635 9.31867 21.864 9.01761 20.9952 9.01761H16.4394V1.409H20.9952ZM6.93069 16.0323L5.65432 15.4354C5.41602 15.9453 5.19913 16.4649 5.00421 16.9929L6.32604 17.4805C6.50732 16.9896 6.70905 16.5064 6.93069 16.0323ZM47.2548 21.3663C46.7395 20.4736 46.0015 19.8783 45.1207 19.6446C44.3177 19.4315 43.4784 19.538 42.6821 19.927L43.1296 18.5007C43.18 18.3382 43.2812 18.1962 43.4183 18.0955C43.5555 17.9948 43.7212 17.9408 43.8913 17.9413H44.2907V16.5323H43.8913C42.9219 16.5323 42.0754 17.1538 41.7852 18.0789L40.9746 20.6624C39.889 19.7094 38.6296 19.331 37.4488 19.6446C36.5681 19.8783 35.8302 20.4736 35.3148 21.3663C34.5179 22.7466 34.3498 24.7074 34.865 26.6118C35.2752 28.1281 36.0668 29.4554 37.0939 30.3493C38.1986 31.3107 39.4479 31.6702 40.6119 31.3613C40.8456 31.2991 41.0713 31.2104 41.2848 31.0969C41.4982 31.2104 41.724 31.2992 41.9576 31.3613C42.2276 31.433 42.5058 31.4693 42.7851 31.4691C43.6978 31.4691 44.6294 31.0859 45.4757 30.3492C46.5029 29.4553 47.2944 28.128 47.7047 26.6117C48.2198 24.7074 48.0517 22.7466 47.2548 21.3663ZM46.3445 26.2438C45.6843 28.6833 43.8417 30.4028 42.3191 29.9994C42.1018 29.9418 41.8949 29.8409 41.7043 29.6996L41.2848 29.3886L40.8653 29.6996C40.6747 29.8409 40.4678 29.9418 40.2505 29.9994C38.7299 30.4037 36.8852 28.6834 36.2251 26.2438C35.8056 24.6935 35.9216 23.1335 36.535 22.0708C36.7608 21.6797 37.1653 21.1776 37.8103 21.0064C38.7389 20.7602 39.8557 21.3148 40.7245 22.4544L41.2848 23.1894L41.8451 22.4544C42.7139 21.3148 43.8313 20.7603 44.7593 21.0064C45.4041 21.1776 45.8088 21.6798 46.0345 22.0708C46.6481 23.1334 46.7639 24.6935 46.3445 26.2438ZM7.47673 27.847C8.42545 28.6884 9.75508 29.2133 11.2261 29.2133C14.1007 29.2133 16.4394 27.2117 16.4394 24.7515C16.4394 22.2913 14.1007 20.2896 11.2261 20.2896C8.35143 20.2896 6.01277 22.2913 6.01277 24.7515C6.01277 25.4697 6.21323 26.1482 6.56698 26.7497C6.10868 27.2934 5.52648 27.6468 4.90746 27.7622C4.95827 27.6021 5.02459 27.4634 5.09805 27.3105C5.28967 26.9113 5.52808 26.4145 5.52808 25.5027C5.52808 24.5908 5.28967 24.0941 5.09805 23.6949C4.93536 23.3558 4.80667 23.0879 4.80667 22.4967C4.80667 21.9056 4.93517 21.6378 5.09805 21.2987C5.21415 21.0568 5.34716 20.7783 5.43424 20.394C5.72139 20.5149 5.99445 20.6894 6.24563 20.9159L7.18901 19.8692C6.40325 19.161 5.46054 18.7867 4.46287 18.7867C2.00266 18.7867 0.00103092 21.1254 0.00103092 24C0.00103092 26.8746 2.00266 29.2133 4.46287 29.2133C5.58594 29.2133 6.65922 28.721 7.47673 27.847ZM1.41003 24C1.41003 22.0903 2.54503 20.5054 4.01856 20.2365C3.96765 20.397 3.90124 20.5358 3.82769 20.689C3.63616 21.0883 3.39766 21.5851 3.39766 22.4968C3.39766 23.4086 3.63616 23.9054 3.82769 24.3046C3.99048 24.6437 4.11907 24.9116 4.11907 25.5027C4.11907 26.094 3.99057 26.3619 3.82769 26.701C3.71159 26.9429 3.57858 27.2214 3.4915 27.6057C2.28314 27.0989 1.41003 25.6746 1.41003 24ZM11.2261 27.8043C9.31641 27.8043 7.73138 26.6692 7.46254 25.1957C7.62317 25.2466 7.76219 25.313 7.91549 25.3866C8.3147 25.5783 8.81152 25.8167 9.72333 25.8167C10.6351 25.8167 11.1319 25.5783 11.5311 25.3866C11.8702 25.224 12.1381 25.0953 12.7293 25.0953C13.3204 25.0953 13.5882 25.2238 13.9273 25.3866C14.1692 25.5027 14.4476 25.6358 14.8318 25.7227C14.325 26.9312 12.9007 27.8043 11.2261 27.8043ZM11.2261 21.6986C13.1357 21.6986 14.7207 22.8336 14.9896 24.3072C14.8291 24.2562 14.6903 24.1898 14.537 24.1163C14.1378 23.9248 13.641 23.6863 12.7293 23.6863C11.8175 23.6863 11.3207 23.9248 10.9215 24.1163C10.5824 24.2791 10.3145 24.4077 9.72333 24.4077C9.13211 24.4077 8.86422 24.2792 8.52512 24.1163C8.28314 24.0002 8.00463 23.8672 7.62035 23.7801C8.12731 22.5717 9.55153 21.6986 11.2261 21.6986Z" fill="#1085F1"/>
<path fill-rule="evenodd" clip-rule="evenodd" d="M29.9658 41.8687V36.0704H19.5392V42.292C17.8858 42.0844 17.0966 42.1106 16.2006 42.6861C15.4902 43.2271 15.0304 44.0813 15.0304 45.0411C15.0304 46.6726 16.3578 48 17.9893 48C19.6208 48 20.9482 46.6726 20.9482 45.0411V44.0142V42.5815V40.4853H28.5568V42.5219C28.0912 42.2339 27.5544 42.0816 27.0069 42.0822C26.2686 42.0822 25.5931 42.3546 25.0742 42.8035C24.6195 43.2746 24.4232 43.5963 24.1587 44.2412C24.0853 44.5015 24.0481 44.7706 24.048 45.0411C24.048 46.6726 25.3754 48 27.0069 48C28.6384 48 29.9658 46.6726 29.9658 45.0411V43.3485V41.8687ZM28.5568 37.4795V39.0763H20.9482V37.4795H28.5568ZM17.9893 46.591C17.1347 46.591 16.4394 45.8957 16.4394 45.0411C16.4394 44.1865 17.1347 43.4912 17.9893 43.4912C18.8439 43.4912 19.5392 44.1865 19.5392 45.0411C19.5392 45.8957 18.8439 46.591 17.9893 46.591ZM27.0069 46.591C26.1523 46.591 25.457 45.8957 25.457 45.0411C25.457 44.1865 26.1523 43.4912 27.0069 43.4912C27.8615 43.4912 28.5568 44.1865 28.5568 45.0411C28.5568 45.8957 27.8615 46.591 27.0069 46.591ZM15.0304 7.4353V13.4325H32.9717V7.43662V5.84877V0H27.0069C25.772 0 24.6758 0.606622 24.001 1.53741C23.3263 0.606622 22.2302 0 20.9952 0H15.0304V5.84914V7.4353ZM16.4394 10.4266H20.9952C22.0185 10.4266 22.8875 11.0981 23.1858 12.0235H16.4394V10.4266ZM24.8163 12.0235C25.1146 11.0981 25.9836 10.4266 27.0069 10.4266H31.5627V12.0235H24.8163ZM27.0069 1.409H31.5627V9.01761H27.0069C26.138 9.01761 25.3385 9.31867 24.7055 9.82084V3.71037C24.7055 2.44133 25.7379 1.409 27.0069 1.409ZM20.9952 1.409C22.2642 1.409 23.2965 2.44133 23.2965 3.71037V9.82084C22.6635 9.31867 21.864 9.01761 20.9952 9.01761H16.4394V1.409H20.9952ZM6.93069 16.0323L5.65432 15.4354C5.41602 15.9453 5.19913 16.4649 5.00421 16.9929L6.32604 17.4805C6.50732 16.9896 6.70905 16.5064 6.93069 16.0323ZM47.2548 21.3663C46.7395 20.4736 46.0015 19.8783 45.1207 19.6446C44.3177 19.4315 43.4784 19.538 42.6821 19.927L43.1296 18.5007C43.1801 18.3382 43.2812 18.1962 43.4183 18.0955C43.5555 17.9948 43.7212 17.9408 43.8913 17.9413H44.2907V16.5323H43.8913C42.9219 16.5323 42.0754 17.1538 41.7852 18.0789L40.9746 20.6624C39.889 19.7094 38.6296 19.331 37.4488 19.6446C36.5681 19.8783 35.8302 20.4736 35.3148 21.3663C34.5179 22.7466 34.3498 24.7074 34.865 26.6118C35.2752 28.1281 36.0668 29.4554 37.0939 30.3493C38.1986 31.3107 39.4479 31.6702 40.6119 31.3613C40.8456 31.2991 41.0713 31.2104 41.2848 31.0969C41.4982 31.2104 41.724 31.2992 41.9576 31.3613C42.2276 31.433 42.5058 31.4693 42.7851 31.4691C43.6978 31.4691 44.6294 31.0859 45.4757 30.3492C46.5029 29.4553 47.2944 28.128 47.7047 26.6117C48.2198 24.7074 48.0517 22.7466 47.2548 21.3663ZM46.3445 26.2438C45.6844 28.6833 43.8417 30.4028 42.3191 29.9994C42.1018 29.9418 41.8949 29.8409 41.7043 29.6996L41.2848 29.3886L40.8653 29.6996C40.6747 29.8409 40.4678 29.9418 40.2505 29.9994C38.7299 30.4037 36.8852 28.6834 36.2251 26.2438C35.8056 24.6935 35.9216 23.1335 36.535 22.0708C36.7608 21.6797 37.1653 21.1776 37.8103 21.0064C38.7389 20.7602 39.8557 21.3148 40.7245 22.4544L41.2848 23.1894L41.8451 22.4544C42.7139 21.3148 43.8313 20.7603 44.7593 21.0064C45.4041 21.1776 45.8088 21.6798 46.0345 22.0708C46.6481 23.1334 46.7639 24.6935 46.3445 26.2438ZM7.47673 27.847C8.42545 28.6884 9.75508 29.2133 11.2261 29.2133C14.1007 29.2133 16.4394 27.2117 16.4394 24.7515C16.4394 22.2913 14.1007 20.2896 11.2261 20.2896C8.35143 20.2896 6.01277 22.2913 6.01277 24.7515C6.01277 25.4697 6.21323 26.1482 6.56698 26.7497C6.10868 27.2934 5.52648 27.6468 4.90746 27.7622C4.95827 27.6021 5.02459 27.4634 5.09805 27.3105C5.28967 26.9113 5.52808 26.4145 5.52808 25.5027C5.52808 24.5908 5.28967 24.0941 5.09805 23.6949C4.93536 23.3558 4.80667 23.0879 4.80667 22.4967C4.80667 21.9056 4.93517 21.6378 5.09805 21.2987C5.21415 21.0568 5.34716 20.7783 5.43424 20.394C5.72139 20.5149 5.99445 20.6894 6.24563 20.9159L7.18901 19.8692C6.40325 19.161 5.46054 18.7867 4.46287 18.7867C2.00266 18.7867 0.00103092 21.1254 0.00103092 24C0.00103092 26.8746 2.00266 29.2133 4.46287 29.2133C5.58594 29.2133 6.65922 28.721 7.47673 27.847ZM1.41003 24C1.41003 22.0903 2.54503 20.5054 4.01856 20.2365C3.96765 20.397 3.90124 20.5358 3.82769 20.689C3.63616 21.0883 3.39766 21.5851 3.39766 22.4968C3.39766 23.4086 3.63616 23.9054 3.82769 24.3046C3.99048 24.6437 4.11907 24.9116 4.11907 25.5027C4.11907 26.094 3.99057 26.3619 3.82769 26.701C3.71159 26.9429 3.57858 27.2214 3.4915 27.6057C2.28314 27.0989 1.41003 25.6746 1.41003 24ZM11.2261 27.8043C9.31641 27.8043 7.73138 26.6692 7.46254 25.1957C7.62317 25.2466 7.76219 25.313 7.91549 25.3866C8.3147 25.5783 8.81152 25.8167 9.72333 25.8167C10.6351 25.8167 11.1319 25.5783 11.5311 25.3866C11.8702 25.224 12.1381 25.0953 12.7293 25.0953C13.3204 25.0953 13.5882 25.2238 13.9273 25.3866C14.1692 25.5027 14.4476 25.6358 14.8318 25.7227C14.325 26.9312 12.9007 27.8043 11.2261 27.8043ZM11.2261 21.6986C13.1357 21.6986 14.7207 22.8336 14.9896 24.3072C14.8291 24.2562 14.6903 24.1898 14.537 24.1163C14.1378 23.9248 13.641 23.6863 12.7293 23.6863C11.8175 23.6863 11.3207 23.9248 10.9215 24.1163C10.5824 24.2791 10.3145 24.4077 9.72333 24.4077C9.13211 24.4077 8.86422 24.2792 8.52512 24.1163C8.28314 24.0002 8.00463 23.8672 7.62035 23.7801C8.12731 22.5717 9.55153 21.6986 11.2261 21.6986Z" fill="#F8981D"/>
<path d="M39.0304 24.7985H40.5333V26.2075H39.0304V24.7985ZM42.0363 24.7985H43.5392V26.2075H42.0363V24.7985ZM20.2437 23.2955H21.7466V24.7045H20.2437V23.2955ZM23.2496 23.2955H24.7525V24.7045H23.2496V23.2955ZM26.2554 23.2955H27.7584V24.7045H26.2554V23.2955Z" fill="#1085F1"/>
</g>
<defs>
<clipPath id="clip0_2_1035">
<rect width="48" height="48" fill="white"/>
</clipPath>
</defs>
</svg>
