<svg width="44" height="48" viewBox="0 0 44 48" fill="none" xmlns="http://www.w3.org/2000/svg">
<path d="M35.7199 29.0706H16.9203C16.4032 29.0706 15.9838 29.4899 15.9838 30.0071C15.9838 30.5242 16.4032 30.9436 16.9203 30.9436H35.7199C36.237 30.9436 36.6564 30.5242 36.6564 30.0071C36.6564 29.4899 36.237 29.0706 35.7199 29.0706ZM35.7199 33.7338H16.9203C16.4032 33.7338 15.9838 34.1532 15.9838 34.6703C15.9838 35.1875 16.4032 35.6069 16.9203 35.6069H35.7199C36.237 35.6069 36.6564 35.1875 36.6564 34.6703C36.6564 34.1532 36.237 33.7338 35.7199 33.7338ZM35.7199 38.397H16.9203C16.4032 38.397 15.9838 38.8164 15.9838 39.3335C15.9838 39.8507 16.4032 40.27 16.9203 40.27H35.7199C36.237 40.27 36.6564 39.8507 36.6564 39.3335C36.6564 38.8164 36.237 38.397 35.7199 38.397ZM8.30874 12.2124H6.72453C6.3902 12.2124 6.07965 12.4433 6.07965 12.8572V17.2437C6.07965 17.6976 6.3503 17.9284 6.72453 17.9284C7.09867 17.9284 7.36932 17.6976 7.36932 17.2437V16.0575H8.34845C9.57443 16.0575 10.2511 15.2455 10.2511 14.139C10.2512 12.8572 9.30387 12.2124 8.30874 12.2124ZM8.06187 14.9112H7.36923V13.3588H8.06187C8.57143 13.3588 8.91382 13.6295 8.91382 14.139C8.91382 14.537 8.61123 14.9112 8.06187 14.9112ZM12.9973 12.2124H11.4529C11.1186 12.2124 10.808 12.4433 10.808 12.8572V17.2358C10.808 17.6498 11.1185 17.8806 11.4529 17.8806H12.9973C14.3984 17.8806 15.6403 16.8616 15.6403 15.0067C15.6403 13.5498 14.6851 12.2124 12.9973 12.2124ZM12.7823 16.6865H12.0976V13.4066H12.838C13.7773 13.4066 14.255 14.0514 14.255 15.0068C14.2551 15.9939 13.7854 16.6865 12.7823 16.6865ZM18.8959 13.4065C19.302 13.4065 19.5408 13.1836 19.5408 12.8094C19.5408 12.4512 19.302 12.2124 18.8959 12.2124H16.9217C16.5873 12.2124 16.2768 12.4433 16.2768 12.8572V17.2437C16.2768 17.6976 16.5474 17.9284 16.9217 17.9284C17.2958 17.9284 17.5664 17.6976 17.5664 17.2437V15.6118H18.7287C19.1348 15.6118 19.3736 15.3808 19.3736 15.0146C19.3736 14.6485 19.1348 14.4176 18.7287 14.4176H17.5664V13.4065H18.8959Z" fill="#F8981D"/>
<path d="M16.4059 9.36554C16.9234 9.36554 17.3429 8.94604 17.3429 8.42856C17.3429 7.91108 16.9234 7.49158 16.4059 7.49158C15.8884 7.49158 15.4689 7.91108 15.4689 8.42856C15.4689 8.94604 15.8884 9.36554 16.4059 9.36554Z" fill="#1085F1"/>
<path d="M43.371 10.1767C43.368 10.1693 43.3648 10.162 43.3617 10.1546C43.3596 10.1499 43.3578 10.1452 43.3557 10.1406C43.3515 10.1313 43.3461 10.1227 43.3418 10.1135C43.3353 10.1004 43.329 10.0872 43.3219 10.0744C43.197 9.82083 43.0349 9.59045 42.8357 9.39116L34.1955 0.750896C33.9968 0.552262 33.7673 0.390714 33.5135 0.265502C33.4988 0.257261 33.4835 0.249862 33.4683 0.24237C33.4602 0.238531 33.4527 0.233942 33.4446 0.230196C33.4405 0.228323 33.4364 0.226824 33.4324 0.225045L33.4097 0.215399C33.0859 0.0730423 32.7359 -0.000314135 32.3822 1.01112e-06H11.5682C10.0737 1.01112e-06 8.85792 1.21578 8.85792 2.71027V7.4921H3.29317C1.70522 7.4921 0.413391 8.78392 0.413391 10.3719V19.5965C0.413391 21.1845 1.70522 22.4763 3.29317 22.4763H8.85792V45.2897C8.85792 46.7842 10.0737 48 11.5682 48H40.8763C42.3708 48 43.5866 46.7842 43.5866 45.2897V11.2044C43.5866 10.8482 43.5138 10.5033 43.371 10.1767ZM40.3892 9.59363H34.1999C34.1451 9.59358 34.0925 9.57176 34.0537 9.53296C34.0149 9.49415 33.993 9.44154 33.993 9.38666V3.19744L40.3892 9.59363ZM40.8763 46.127H11.5682C11.1065 46.127 10.7309 45.7513 10.7309 45.2897V22.4763H21.9766C23.5645 22.4763 24.8564 21.1845 24.8564 19.5965V10.3719C24.8564 8.78392 23.5645 7.4921 21.9766 7.4921H21.1103C20.5932 7.4921 20.1738 7.91147 20.1738 8.42861C20.1738 8.94575 20.5932 9.36512 21.1103 9.36512H21.9766C22.5318 9.36512 22.9833 9.81671 22.9833 10.3719V19.5965C22.9833 20.1517 22.5318 20.6033 21.9766 20.6033H3.29317C2.738 20.6033 2.28642 20.1517 2.28642 19.5965V10.3719C2.28642 9.81671 2.738 9.36512 3.29317 9.36512H11.6984C12.2155 9.36512 12.6349 8.94575 12.6349 8.42861C12.6349 7.91147 12.2155 7.4921 11.6984 7.4921H10.7309V2.71027C10.7309 2.24857 11.1066 1.87303 11.5682 1.87303H32.12V9.38666C32.12 10.5336 33.053 11.4667 34.1999 11.4667H41.7136V45.2897C41.7136 45.7513 41.338 46.127 40.8763 46.127Z" fill="#1085F1"/>
</svg>
