<svg width="48" height="48" viewBox="0 0 48 48" fill="none" xmlns="http://www.w3.org/2000/svg">
<g clip-path="url(#clip0_2_935)">
<path d="M47.7577 15.948C47.6625 15.8601 47.5461 15.7985 47.4199 15.7691C47.2936 15.7398 47.162 15.7438 47.0377 15.7807L35.0737 19.3147C34.949 19.3515 34.8361 19.4202 34.7459 19.5138C34.6557 19.6075 34.5914 19.723 34.5594 19.849C34.5273 19.975 34.5285 20.1072 34.563 20.2326C34.5974 20.358 34.6638 20.4723 34.7557 20.5642L36.7582 22.5667L26.25 33.0757L19.902 26.7262C19.5513 26.3776 19.1353 26.1015 18.6779 25.9139C18.2204 25.7262 17.7304 25.6306 17.2359 25.6326C16.7414 25.6345 16.2522 25.734 15.7962 25.9253C15.3402 26.1165 14.9264 26.3958 14.5785 26.7472L0.200997 42.24C0.130256 42.3114 0.0745965 42.3963 0.0373278 42.4897C5.9098e-05 42.583 -0.0180584 42.683 -0.015948 42.7835C-0.0138375 42.884 0.00845786 42.983 0.049613 43.0748C0.0907681 43.1665 0.149943 43.249 0.22362 43.3174C0.297298 43.3858 0.383974 43.4387 0.478497 43.4729C0.57302 43.5071 0.67346 43.522 0.773848 43.5167C0.874236 43.5113 0.972523 43.4858 1.06287 43.4417C1.15321 43.3976 1.23377 43.3358 1.29975 43.26L15.6585 27.7875C16.081 27.3661 16.6533 27.1295 17.25 27.1295C17.8467 27.1295 18.419 27.3661 18.8415 27.7875L25.7197 34.6665C25.8631 34.8018 26.0528 34.8772 26.25 34.8772C26.4472 34.8772 26.6369 34.8018 26.7802 34.6665L38.349 23.097C38.4896 22.9563 38.5686 22.7656 38.5686 22.5667C38.5686 22.3678 38.4896 22.1771 38.349 22.0365L36.708 20.3962L46.2622 17.574L44.1412 27.8287L42.5917 26.28C42.4511 26.1394 42.2604 26.0604 42.0615 26.0604C41.8626 26.0604 41.6719 26.1394 41.5312 26.28L27.8415 39.969C27.4192 40.3906 26.8469 40.6275 26.2502 40.6276C25.6534 40.6278 25.081 40.3911 24.6585 39.9697L17.7802 33.0907C17.7078 33.0182 17.6212 32.9613 17.5259 32.9235C17.4306 32.8858 17.3285 32.8679 17.226 32.8712C17.1235 32.8744 17.0228 32.8986 16.9301 32.9423C16.8373 32.986 16.7545 33.0483 16.6867 33.1252L4.68675 46.7542C4.62164 46.8281 4.57174 46.9142 4.53988 47.0074C4.50802 47.1006 4.49483 47.1991 4.50106 47.2974C4.51365 47.496 4.60459 47.6814 4.75387 47.8128C4.90316 47.9443 5.09856 48.0111 5.29709 47.9985C5.49562 47.9859 5.68102 47.895 5.8125 47.7457L17.2845 34.7167L23.598 41.031C24.3022 41.7329 25.2559 42.1269 26.2502 42.1268C27.2444 42.1267 28.198 41.7323 28.902 41.0302L42.0615 27.8707L44.064 29.8732C44.1597 29.9688 44.2795 30.0368 44.4107 30.0698C44.5419 30.1029 44.6796 30.0999 44.8092 30.0611C44.9388 30.0222 45.0555 29.9491 45.147 29.8493C45.2384 29.7496 45.3011 29.627 45.3285 29.4945L47.9842 16.6522C48.0104 16.5253 48.0033 16.3937 47.9637 16.2703C47.924 16.1469 47.853 16.0358 47.7577 15.948Z" fill="#F8981D"/>
<path d="M12.75 42C12.5511 42 12.3603 42.079 12.2197 42.2197C12.079 42.3603 12 42.5511 12 42.75V47.25C12 47.4489 12.079 47.6397 12.2197 47.7803C12.3603 47.921 12.5511 48 12.75 48C12.9489 48 13.1397 47.921 13.2803 47.7803C13.421 47.6397 13.5 47.4489 13.5 47.25V42.75C13.5 42.5511 13.421 42.3603 13.2803 42.2197C13.1397 42.079 12.9489 42 12.75 42ZM3.75 36.75C3.94891 36.75 4.13968 36.671 4.28033 36.5303C4.42098 36.3897 4.5 36.1989 4.5 36V25.5H12V26.25C12 26.4489 12.079 26.6397 12.2197 26.7803C12.3603 26.921 12.5511 27 12.75 27C12.9489 27 13.1397 26.921 13.2803 26.7803C13.421 26.6397 13.5 26.4489 13.5 26.25V24.75C13.5 24.5511 13.421 24.3603 13.2803 24.2197C13.1397 24.079 12.9489 24 12.75 24H3.75C3.55109 24 3.36032 24.079 3.21967 24.2197C3.07902 24.3603 3 24.5511 3 24.75V36C3 36.1989 3.07902 36.3897 3.21967 36.5303C3.36032 36.671 3.55109 36.75 3.75 36.75ZM35.25 36C35.0511 36 34.8603 36.079 34.7197 36.2197C34.579 36.3603 34.5 36.5511 34.5 36.75V47.25C34.5 47.4489 34.579 47.6397 34.7197 47.7803C34.8603 47.921 35.0511 48 35.25 48C35.4489 48 35.6397 47.921 35.7803 47.7803C35.921 47.6397 36 47.4489 36 47.25V36.75C36 36.5511 35.921 36.3603 35.7803 36.2197C35.6397 36.079 35.4489 36 35.25 36ZM35.25 18C35.4489 18 35.6397 17.921 35.7803 17.7803C35.921 17.6397 36 17.4489 36 17.25V1.5H43.5V14.25C43.5 14.4489 43.579 14.6397 43.7197 14.7803C43.8603 14.921 44.0511 15 44.25 15C44.4489 15 44.6397 14.921 44.7803 14.7803C44.921 14.6397 45 14.4489 45 14.25V0.75C45 0.551088 44.921 0.360322 44.7803 0.21967C44.6397 0.0790176 44.4489 0 44.25 0L35.25 0C35.0511 0 34.8603 0.0790176 34.7197 0.21967C34.579 0.360322 34.5 0.551088 34.5 0.75V17.25C34.5 17.4489 34.579 17.6397 34.7197 17.7803C34.8603 17.921 35.0511 18 35.25 18ZM44.25 31.5C44.0511 31.5 43.8603 31.579 43.7197 31.7197C43.579 31.8603 43.5 32.0511 43.5 32.25V47.25C43.5 47.4489 43.579 47.6397 43.7197 47.7803C43.8603 47.921 44.0511 48 44.25 48C44.4489 48 44.6397 47.921 44.7803 47.7803C44.921 47.6397 45 47.4489 45 47.25V32.25C45 32.0511 44.921 31.8603 44.7803 31.7197C44.6397 31.579 44.4489 31.5 44.25 31.5ZM28.5 42.75C28.3011 42.75 28.1103 42.829 27.9697 42.9697C27.829 43.1103 27.75 43.3011 27.75 43.5V47.25C27.75 47.4489 27.829 47.6397 27.9697 47.7803C28.1103 47.921 28.3011 48 28.5 48C28.6989 48 28.8897 47.921 29.0303 47.7803C29.171 47.6397 29.25 47.4489 29.25 47.25V43.5C29.25 43.3011 29.171 43.1103 29.0303 42.9697C28.8897 42.829 28.6989 42.75 28.5 42.75ZM19.5 24.75C19.6989 24.75 19.8897 24.671 20.0303 24.5303C20.171 24.3897 20.25 24.1989 20.25 24V16.5H27.75V28.5C27.75 28.6989 27.829 28.8897 27.9697 29.0303C28.1103 29.171 28.3011 29.25 28.5 29.25C28.6989 29.25 28.8897 29.171 29.0303 29.0303C29.171 28.8897 29.25 28.6989 29.25 28.5V15.75C29.25 15.5511 29.171 15.3603 29.0303 15.2197C28.8897 15.079 28.6989 15 28.5 15H19.5C19.3011 15 19.1103 15.079 18.9697 15.2197C18.829 15.3603 18.75 15.5511 18.75 15.75V24C18.75 24.1989 18.829 24.3897 18.9697 24.5303C19.1103 24.671 19.3011 24.75 19.5 24.75ZM19.5 38.25C19.3011 38.25 19.1103 38.329 18.9697 38.4697C18.829 38.6103 18.75 38.8011 18.75 39V47.25C18.75 47.4489 18.829 47.6397 18.9697 47.7803C19.1103 47.921 19.3011 48 19.5 48C19.6989 48 19.8897 47.921 20.0303 47.7803C20.171 47.6397 20.25 47.4489 20.25 47.25V39C20.25 38.8011 20.171 38.6103 20.0303 38.4697C19.8897 38.329 19.6989 38.25 19.5 38.25Z" fill="#1085F1"/>
</g>
<defs>
<clipPath id="clip0_2_935">
<rect width="48" height="48" fill="white"/>
</clipPath>
</defs>
</svg>
