<svg width="48" height="48" viewBox="0 0 48 48" fill="none" xmlns="http://www.w3.org/2000/svg">
<path d="M28.2559 0.703221L27.8292 2.93071C27.5949 4.15415 26.5253 5.03821 25.2803 5.03821H15.9502C14.7053 5.03821 13.6356 4.15415 13.4012 2.93071L12.9747 0.703221H28.2559Z" stroke="#1085F1" stroke-miterlimit="10" stroke-linecap="round" stroke-linejoin="round"/>
<path d="M34.7033 36.795V44.1684C34.7033 45.8962 33.3028 47.2969 31.5749 47.2969H9.65622C7.92841 47.2969 6.52779 45.8962 6.52779 44.1684V3.83169C6.52779 2.10389 7.92841 0.703262 9.65622 0.703262H31.5749C33.3028 0.703262 34.7033 2.10389 34.7033 3.83169V24.4161" stroke="#1085F1" stroke-miterlimit="10" stroke-linecap="round" stroke-linejoin="round"/>
<path d="M34.7033 33.5504V31.157" stroke="#1085F1" stroke-miterlimit="10" stroke-linecap="round" stroke-linejoin="round"/>
<path d="M19.214 2.98145H22.0167" stroke="#1085F1" stroke-miterlimit="10" stroke-linecap="round" stroke-linejoin="round"/>
<path d="M31.102 3.80964C31.1381 3.77358 31.1583 3.72467 31.1583 3.67367C31.1583 3.62267 31.1381 3.57376 31.102 3.5377C31.066 3.50164 31.017 3.48138 30.966 3.48138C30.915 3.48138 30.8661 3.50164 30.8301 3.5377C30.794 3.57376 30.7738 3.62267 30.7738 3.67367C30.7738 3.72467 30.794 3.77358 30.8301 3.80964C30.8661 3.84571 30.915 3.86597 30.966 3.86597C31.017 3.86597 31.066 3.84571 31.102 3.80964Z" stroke="#1085F1"/>
<path d="M27.9515 29.7855H21.4838C20.6735 29.7855 20.0166 30.4423 20.0166 31.2525V35.3604H15.1264" stroke="#F8981D" stroke-miterlimit="10" stroke-linecap="round" stroke-linejoin="round"/>
<path d="M27.9515 35.3604H15.1264" stroke="#F8981D" stroke-miterlimit="10" stroke-linecap="round" stroke-linejoin="round"/>
<path d="M39.8499 31.1573H29.5737C28.6777 31.1573 27.9514 30.4311 27.9514 29.535C27.9514 28.639 28.6777 27.9128 29.5737 27.9128H39.8499C40.746 27.9128 41.4723 28.639 41.4723 29.535C41.4723 30.4311 40.746 31.1573 39.8499 31.1573Z" stroke="#F8981D" stroke-miterlimit="10" stroke-linecap="round" stroke-linejoin="round"/>
<path d="M39.8499 36.7952H29.5737C28.6777 36.7952 27.9514 36.0689 27.9514 35.1728C27.9514 34.2769 28.6777 33.5506 29.5737 33.5506H39.8499C40.746 33.5506 41.4723 34.2769 41.4723 35.1728C41.4723 36.0689 40.746 36.7952 39.8499 36.7952Z" stroke="#F8981D" stroke-miterlimit="10" stroke-linecap="round" stroke-linejoin="round"/>
<path d="M27.4288 42.8081H21.4796C20.5835 42.8081 19.8572 42.0817 19.8572 41.1857C19.8572 40.2897 20.5835 39.5634 21.4796 39.5634H27.4288C28.3249 39.5634 29.0512 40.2897 29.0512 41.1857C29.0512 42.0817 28.3249 42.8081 27.4288 42.8081Z" stroke="#F8981D" stroke-miterlimit="10" stroke-linecap="round" stroke-linejoin="round"/>
<path d="M13.504 36.9827H11.3659C10.4701 36.9827 9.74369 36.2564 9.74369 35.3603C9.74369 34.4644 10.4701 33.7381 11.3659 33.7381H13.504C14.4 33.7381 15.1264 34.4644 15.1264 35.3603C15.1264 36.2564 14.4 36.9827 13.504 36.9827Z" stroke="#F8981D" stroke-miterlimit="10" stroke-linecap="round" stroke-linejoin="round"/>
<path d="M10.2553 10.7214V18.4631C10.2553 19.7815 10.9094 20.6691 12.0203 21.379C12.5614 21.7246 13.2448 21.9709 14.0941 21.972C14.8296 21.9731 15.4443 21.8027 15.9525 21.5468C17.2473 20.8948 18.0729 19.9046 18.0729 18.4549V10.7214" stroke="#F8981D" stroke-miterlimit="10" stroke-linecap="round" stroke-linejoin="round"/>
<path d="M30.3152 10.622L21.8626 21.8319" stroke="#F8981D" stroke-miterlimit="10" stroke-linecap="round" stroke-linejoin="round"/>
<path d="M22.2884 10.622L30.9469 22.031" stroke="#F8981D" stroke-miterlimit="10" stroke-linecap="round" stroke-linejoin="round"/>
<path d="M12.435 36.9826V39.7186C12.435 40.5289 13.0918 41.1857 13.9021 41.1857H16.521" stroke="#F8981D" stroke-miterlimit="10" stroke-linecap="round" stroke-linejoin="round"/>
</svg>
