<svg width="185" height="50" viewBox="0 0 185 50" fill="none" xmlns="http://www.w3.org/2000/svg">
<path fill-rule="evenodd" clip-rule="evenodd" d="M28.9679 2.43903H26.7817C26.6307 2.43903 26.5084 2.56138 26.5084 2.71231V4.26091H19.3119V2.71231C19.3119 2.56138 19.1896 2.43903 19.0387 2.43903H16.8524C16.7015 2.43903 16.5791 2.56138 16.5791 2.71231V4.26091H9.38269V2.71231C9.38269 2.56138 9.26034 2.43903 9.10941 2.43903H6.92315C6.77222 2.43903 6.64987 2.56138 6.64987 2.71231V4.26091H1.82188C0.815684 4.26091 0 5.07659 0 6.08279V34.8685C0 35.8747 0.815683 36.6904 1.82188 36.6904H11.7226L12.8826 34.5732L13.4983 33.9576H2.73282V14.0991H33.0671V14.3887L35.8 11.6559V6.08279C35.8 5.07659 34.9843 4.26091 33.9781 4.26091H29.2412V2.71231C29.2412 2.56138 29.1188 2.43903 28.9679 2.43903ZM28.9679 8.63342H26.7817C26.6307 8.63342 26.5084 8.51107 26.5084 8.36014V6.99373H19.3119V8.36014C19.3119 8.51107 19.1896 8.63342 19.0387 8.63342H16.8524C16.7015 8.63342 16.5791 8.51107 16.5791 8.36014V6.99373H9.38269V8.36014C9.38269 8.51107 9.26034 8.63342 9.10941 8.63342H6.92315C6.77222 8.63342 6.64987 8.51107 6.64987 8.36014V6.99373H2.73282V11.3662H33.0671V6.99373H29.2412V8.36014C29.2412 8.51107 29.1188 8.63342 28.9679 8.63342Z" fill="#455B66"/>
<path d="M29.5145 17.9414V17.1052C29.5145 16.9542 29.3921 16.8319 29.2412 16.8319H27.0549C26.904 16.8319 26.7817 16.9542 26.7817 17.1052V19.2914C26.7817 19.4424 26.904 19.5647 27.0549 19.5647H27.8911L29.5145 17.9414Z" fill="#455B66"/>
<path d="M5.46564 17.1052C5.46564 16.9542 5.588 16.8319 5.73893 16.8319H7.92518C8.07611 16.8319 8.19847 16.9542 8.19847 17.1052V19.2914C8.19847 19.4424 8.07611 19.5647 7.92518 19.5647H5.73893C5.588 19.5647 5.46564 19.4424 5.46564 19.2914V17.1052Z" fill="#455B66"/>
<path d="M5.46564 22.8441C5.46564 22.6932 5.588 22.5708 5.73893 22.5708H7.92518C8.07611 22.5708 8.19847 22.6932 8.19847 22.8441V25.0304C8.19847 25.1813 8.07611 25.3036 7.92518 25.3036H5.73893C5.588 25.3036 5.46564 25.1813 5.46564 25.0304V22.8441Z" fill="#455B66"/>
<path d="M5.73893 28.3097C5.588 28.3097 5.46564 28.4321 5.46564 28.583V30.7693C5.46564 30.9202 5.588 31.0426 5.73893 31.0426H7.92518C8.07611 31.0426 8.19847 30.9202 8.19847 30.7693V28.583C8.19847 28.4321 8.07611 28.3097 7.92518 28.3097H5.73893Z" fill="#455B66"/>
<path d="M12.571 17.1052C12.571 16.9542 12.6933 16.8319 12.8443 16.8319H15.0305C15.1814 16.8319 15.3038 16.9542 15.3038 17.1052V19.2914C15.3038 19.4424 15.1814 19.5647 15.0305 19.5647H12.8443C12.6933 19.5647 12.571 19.4424 12.571 19.2914V17.1052Z" fill="#455B66"/>
<path d="M12.8443 22.5708C12.6933 22.5708 12.571 22.6932 12.571 22.8441V25.0304C12.571 25.1813 12.6933 25.3036 12.8443 25.3036H15.0305C15.1814 25.3036 15.3038 25.1813 15.3038 25.0304V22.8441C15.3038 22.6932 15.1814 22.5708 15.0305 22.5708H12.8443Z" fill="#455B66"/>
<path d="M12.571 28.583C12.571 28.4321 12.6933 28.3097 12.8443 28.3097H15.0305C15.1814 28.3097 15.3038 28.4321 15.3038 28.583V30.7693C15.3038 30.9202 15.1814 31.0426 15.0305 31.0426H12.8443C12.6933 31.0426 12.571 30.9202 12.571 30.7693V28.583Z" fill="#455B66"/>
<path d="M19.9496 16.8319C19.7987 16.8319 19.6763 16.9542 19.6763 17.1052V19.2914C19.6763 19.4424 19.7987 19.5647 19.9496 19.5647H22.1359C22.2868 19.5647 22.4091 19.4424 22.4091 19.2914V17.1052C22.4091 16.9542 22.2868 16.8319 22.1359 16.8319H19.9496Z" fill="#455B66"/>
<path d="M19.6763 22.8441C19.6763 22.6932 19.7987 22.5708 19.9496 22.5708H22.1359C22.2868 22.5708 22.4091 22.6932 22.4091 22.8441V25.0304C22.4091 25.1813 22.2868 25.3036 22.1359 25.3036H19.9496C19.7987 25.3036 19.6763 25.1813 19.6763 25.0304V22.8441Z" fill="#455B66"/>
<path fill-rule="evenodd" clip-rule="evenodd" d="M15.9795 36.9516L13.0515 42.2499L18.3779 39.3425L45.0846 12.6358L42.69 10.2411L15.9795 36.9516ZM19.5957 40.9695L47.4207 13.1445C47.7017 12.8635 47.7017 12.4081 47.4207 12.1271L43.1987 7.90503C42.9177 7.62409 42.4622 7.62409 42.1813 7.90503L14.3563 35.7301L7.94684 47.3281L19.5957 40.9695Z" fill="#1085F1"/>
<path fill-rule="evenodd" clip-rule="evenodd" d="M18.7192 39.5824L15.7689 36.632L17.1913 35.2096L20.1416 38.16L18.7192 39.5824Z" fill="#1085F1"/>
<path fill-rule="evenodd" clip-rule="evenodd" d="M36.5578 21.6096L33.7416 18.7934L35.164 17.371L37.9802 20.1872L36.5578 21.6096Z" fill="#1085F1"/>
<path fill-rule="evenodd" clip-rule="evenodd" d="M45.3116 16.3238L44.7766 15.7887L46.199 14.3663L47.4452 15.6126C47.838 16.0053 47.838 16.6422 47.4452 17.035L42.333 22.1472L40.9106 20.7248L45.3116 16.3238Z" fill="#1085F1"/>
<path fill-rule="evenodd" clip-rule="evenodd" d="M45.8438 8.20834L43.9607 10.0914L42.5383 8.66903L45.1326 6.07474C45.5254 5.68196 46.1622 5.68196 46.555 6.07474L49.251 8.77077C49.6438 9.16355 49.6438 9.80038 49.251 10.1932L46.6567 12.7875L45.2343 11.3651L47.1174 9.48197L45.8438 8.20834Z" fill="#1085F1"/>
<path d="M61.06 32H56.48V18.4H61.06C62.2333 18.4 63.2 18.5267 63.96 18.78C64.72 19.02 65.3067 19.4267 65.72 20C66.1467 20.56 66.44 21.2267 66.6 22C66.76 22.76 66.84 23.7533 66.84 24.98C66.84 26.2067 66.7667 27.2267 66.62 28.04C66.4733 28.84 66.1933 29.56 65.78 30.2C65.38 30.8267 64.7933 31.2867 64.02 31.58C63.2467 31.86 62.26 32 61.06 32ZM63.96 26.6C63.9867 26.1733 64 25.5867 64 24.84C64 24.08 63.9733 23.4733 63.92 23.02C63.8667 22.5667 63.74 22.1533 63.54 21.78C63.34 21.4067 63.04 21.1533 62.64 21.02C62.2533 20.8733 61.7267 20.8 61.06 20.8H59.24V29.6H61.06C62.06 29.6 62.7867 29.3467 63.24 28.84C63.6267 28.4267 63.8667 27.68 63.96 26.6ZM68.9939 32V22H71.6739V32H68.9939ZM68.9939 20.72V18H71.6739V20.72H68.9939ZM83.2102 33.24C83.2102 34.3867 82.7702 35.2333 81.8902 35.78C81.0102 36.3267 79.8168 36.6 78.3102 36.6C76.8168 36.6 75.6635 36.4 74.8502 36C74.0502 35.6 73.6502 34.8733 73.6502 33.82C73.6502 32.98 74.1302 32.1867 75.0902 31.44C74.5968 31.1067 74.3502 30.6 74.3502 29.92C74.3502 29.6533 74.5502 29.2133 74.9502 28.6L75.1302 28.32C74.2235 27.6667 73.7702 26.7067 73.7702 25.44C73.7702 24.16 74.1502 23.2333 74.9102 22.66C75.6835 22.0867 76.7035 21.8 77.9702 21.8C78.5435 21.8 79.1102 21.8667 79.6702 22L79.9902 22.06L83.2102 21.96V24.1L81.7102 23.98C82.0035 24.4333 82.1502 24.8867 82.1502 25.34C82.1502 26.6733 81.8102 27.5933 81.1302 28.1C80.4502 28.6067 79.3835 28.86 77.9302 28.86C77.6235 28.86 77.3502 28.8333 77.1102 28.78C76.9768 29.1267 76.9102 29.4133 76.9102 29.64C76.9102 29.8533 77.0235 30 77.2502 30.08C77.4768 30.16 78.0102 30.2067 78.8502 30.22C80.5302 30.2333 81.6768 30.46 82.2902 30.9C82.9035 31.3267 83.2102 32.1067 83.2102 33.24ZM76.2902 33.54C76.2902 34.1133 76.9902 34.4 78.3902 34.4C79.8035 34.4 80.5102 34.0667 80.5102 33.4C80.5102 33.04 80.3902 32.8067 80.1502 32.7C79.9102 32.6067 79.4035 32.5533 78.6302 32.54L76.8302 32.4C76.4702 32.76 76.2902 33.14 76.2902 33.54ZM76.4502 25.36C76.4502 26.3333 76.9568 26.82 77.9702 26.82C78.9968 26.82 79.5102 26.3333 79.5102 25.36C79.5102 24.3733 78.9968 23.88 77.9702 23.88C76.9568 23.88 76.4502 24.3733 76.4502 25.36ZM84.8338 32V22H87.5138V32H84.8338ZM84.8338 20.72V18H87.5138V20.72H84.8338ZM95.53 24.28H93.07V28.38C93.07 28.78 93.0767 29.0667 93.09 29.24C93.1167 29.4 93.19 29.54 93.31 29.66C93.4433 29.78 93.6433 29.84 93.91 29.84L95.43 29.8L95.55 31.94C94.6567 32.14 93.9767 32.24 93.51 32.24C92.31 32.24 91.49 31.9733 91.05 31.44C90.61 30.8933 90.39 29.8933 90.39 28.44V24.28H89.21V22H90.39V19.22H93.07V22H95.53V24.28ZM104.935 25.12V29.28C104.962 29.6 105.015 29.8267 105.095 29.96C105.175 30.08 105.342 30.1667 105.595 30.22L105.515 32.24C104.835 32.24 104.288 32.1933 103.875 32.1C103.475 32.0067 103.068 31.82 102.655 31.54C101.695 32.0067 100.715 32.24 99.7152 32.24C97.6485 32.24 96.6152 31.1467 96.6152 28.96C96.6152 27.8933 96.9018 27.14 97.4752 26.7C98.0485 26.2467 98.9285 25.98 100.115 25.9L102.255 25.74V25.12C102.255 24.7067 102.162 24.4267 101.975 24.28C101.788 24.12 101.488 24.04 101.075 24.04L97.3152 24.2L97.2352 22.34C98.6618 21.9533 100.015 21.76 101.295 21.76C102.588 21.76 103.515 22.0267 104.075 22.56C104.648 23.0933 104.935 23.9467 104.935 25.12ZM100.435 27.76C99.6885 27.8267 99.3152 28.2267 99.3152 28.96C99.3152 29.6933 99.6418 30.06 100.295 30.06C100.802 30.06 101.355 29.98 101.955 29.82L102.255 29.74V27.6L100.435 27.76ZM107.61 32V18H110.29V32H107.61Z" fill="#15499F"/>
<path d="M123.48 28.04H121.24V32H118.48V18.4H123.48C126.707 18.4 128.32 19.9733 128.32 23.12C128.32 24.7067 127.907 25.9267 127.08 26.78C126.267 27.62 125.067 28.04 123.48 28.04ZM121.24 25.68H123.46C124.833 25.68 125.52 24.8267 125.52 23.12C125.52 22.28 125.353 21.68 125.02 21.32C124.687 20.9467 124.167 20.76 123.46 20.76H121.24V25.68ZM130.137 32V18H132.817V32H130.137ZM143.068 25.12V29.28C143.095 29.6 143.148 29.8267 143.228 29.96C143.308 30.08 143.475 30.1667 143.728 30.22L143.648 32.24C142.968 32.24 142.421 32.1933 142.008 32.1C141.608 32.0067 141.201 31.82 140.788 31.54C139.828 32.0067 138.848 32.24 137.848 32.24C135.781 32.24 134.748 31.1467 134.748 28.96C134.748 27.8933 135.035 27.14 135.608 26.7C136.181 26.2467 137.061 25.98 138.248 25.9L140.388 25.74V25.12C140.388 24.7067 140.295 24.4267 140.108 24.28C139.921 24.12 139.621 24.04 139.208 24.04L135.448 24.2L135.368 22.34C136.795 21.9533 138.148 21.76 139.428 21.76C140.721 21.76 141.648 22.0267 142.208 22.56C142.781 23.0933 143.068 23.9467 143.068 25.12ZM138.568 27.76C137.821 27.8267 137.448 28.2267 137.448 28.96C137.448 29.6933 137.775 30.06 138.428 30.06C138.935 30.06 139.488 29.98 140.088 29.82L140.388 29.74V27.6L138.568 27.76ZM148.303 32H145.623V22H148.283V22.56C149.189 22.0267 150.023 21.76 150.783 21.76C152.116 21.76 153.036 22.1533 153.543 22.94C154.049 23.7267 154.303 24.94 154.303 26.58V32H151.623V26.66C151.623 25.8067 151.523 25.18 151.323 24.78C151.123 24.3667 150.723 24.16 150.123 24.16C149.576 24.16 149.049 24.2533 148.543 24.44L148.303 24.52V32ZM159.358 32H156.678V22H159.338V22.56C160.244 22.0267 161.078 21.76 161.838 21.76C163.171 21.76 164.091 22.1533 164.598 22.94C165.104 23.7267 165.358 24.94 165.358 26.58V32H162.678V26.66C162.678 25.8067 162.578 25.18 162.378 24.78C162.178 24.3667 161.778 24.16 161.178 24.16C160.631 24.16 160.104 24.2533 159.598 24.44L159.358 24.52V32ZM169.932 28.14C169.946 28.7533 170.106 29.2 170.412 29.48C170.732 29.7467 171.186 29.88 171.772 29.88C173.012 29.88 174.119 29.84 175.092 29.76L175.652 29.7L175.692 31.68C174.159 32.0533 172.772 32.24 171.532 32.24C170.026 32.24 168.932 31.84 168.252 31.04C167.572 30.24 167.232 28.94 167.232 27.14C167.232 23.5533 168.706 21.76 171.652 21.76C174.559 21.76 176.012 23.2667 176.012 26.28L175.812 28.14H169.932ZM173.372 26.1C173.372 25.3 173.246 24.7467 172.992 24.44C172.739 24.12 172.292 23.96 171.652 23.96C171.026 23.96 170.579 24.1267 170.312 24.46C170.059 24.78 169.926 25.3267 169.912 26.1H173.372ZM177.928 32V22H180.588V23.06C181.708 22.3933 182.774 21.96 183.788 21.76V24.46C182.708 24.6867 181.781 24.92 181.008 25.16L180.608 25.3V32H177.928Z" fill="#253238"/>
</svg>
